<svg xmlns="http://www.w3.org/2000/svg" viewBox="0 0 64 64" width="512" height="512" shape-rendering="crispEdges" style="image-rendering:pixelated"><defs><linearGradient id="bg" x1="0%" y1="0%" x2="100%" y2="100%"><stop offset="0%" stop-color="#f0f0f0"/><stop offset="100%" stop-color="#e8e8e8"/></linearGradient></defs><rect width="64" height="64" fill="url(#bg)"/><rect x="10" y="52" width="4" height="8" fill="#ff6060"/><rect x="10" y="60" width="4" height="4" fill="#ff6060" opacity="0.5"/><rect x="24" y="52" width="6" height="10" fill="#ff6060"/><rect x="26" y="62" width="4" height="2" fill="#ff6060" opacity="0.3"/><rect x="46" y="52" width="4" height="12" fill="#ff6060"/><rect x="4" y="8" width="2" height="2" fill="#ff6060" opacity="0.4"/><rect x="58" y="16" width="2" height="2" fill="#ff6060" opacity="0.3"/><rect x="2" y="44" width="2" height="2" fill="#ff6060" opacity="0.5"/><rect x="56" y="52" width="2" height="2" fill="#ff6060" opacity="0.4"/><rect x="12" y="58" width="2" height="2" fill="#ff6060" opacity="0.3"/><rect x="50" y="6" width="2" height="2" fill="#ff6060" opacity="0.5"/><rect x="16" y="8" width="4" height="4" fill="#ff6060"/><rect x="20" y="12" width="4" height="4" fill="#ff6060"/><rect x="40" y="12" width="4" height="4" fill="#ff6060"/><rect x="44" y="8" width="4" height="4" fill="#ff6060"/><rect x="16" y="16" width="32" height="4" fill="#ff6060"/><rect x="12" y="20" width="8" height="4" fill="#ff6060"/><rect x="24" y="20" width="16" height="4" fill="#ff6060"/><rect x="44" y="20" width="8" height="4" fill="#ff6060"/><rect x="8" y="24" width="48" height="4" fill="#ff6060"/><rect x="8" y="28" width="48" height="4" fill="#ff6060"/><rect x="8" y="32" width="48" height="4" fill="#ff6060"/><rect x="12" y="36" width="40" height="4" fill="#ff6060"/><rect x="16" y="40" width="32" height="4" fill="#ff6060"/><rect x="14" y="26" width="10" height="8" fill="#000000"/><rect x="40" y="26" width="10" height="8" fill="#000000"/><rect x="16" y="34" width="4" height="12" fill="#ffff00"/><rect x="16" y="46" width="4" height="6" fill="#ffff00" opacity="0.6"/><rect x="44" y="34" width="4" height="16" fill="#ffff00"/><rect x="44" y="50" width="4" height="4" fill="#ffff00" opacity="0.4"/><rect x="20" y="44" width="8" height="4" fill="#ff6060"/><rect x="36" y="44" width="8" height="4" fill="#ff6060"/><rect x="12" y="48" width="8" height="4" fill="#ff6060"/><rect x="28" y="48" width="8" height="4" fill="#ff6060"/><rect x="44" y="48" width="8" height="4" fill="#ff6060"/><rect x="8" y="52" width="8" height="4" fill="#ff6060"/><rect x="48" y="52" width="8" height="4" fill="#ff6060"/><rect x="28" y="54" width="2" height="10" fill="#ffff00"/><rect x="34" y="54" width="2" height="10" fill="#ffff00"/><rect x="28" y="58" width="8" height="2" fill="#ffff00"/></svg>